<?xml version="1.0" encoding="utf-8"?>
<!-- Generator: Adobe Illustrator 27.5.0, SVG Export Plug-In . SVG Version: 6.00 Build 0)  -->
<svg version="1.1" xmlns="http://www.w3.org/2000/svg" xmlns:xlink="http://www.w3.org/1999/xlink" x="0px" y="0px"
	 viewBox="0 0 500 500" style="enable-background:new 0 0 500 500;" xml:space="preserve">
<g id="Background">
	<rect style="fill-rule:evenodd;clip-rule:evenodd;fill:#ABCBFF;" width="500" height="500"/>
</g>
<g id="Objects">
	<g>
		<g>
			<polygon style="opacity:0.2;fill-rule:evenodd;clip-rule:evenodd;" points="0,269.909 54.221,388.235 0,406.675 			"/>
			<g>
				<polygon style="fill-rule:evenodd;clip-rule:evenodd;fill:#FFFFFF;" points="0,270.457 46.531,383.777 0,402.883 				"/>
				<polygon style="fill-rule:evenodd;clip-rule:evenodd;fill:#2C394D;" points="0,289.896 29.757,362.365 0,374.583 				"/>
			</g>
		</g>
		<g>
			<polygon style="opacity:0.2;fill-rule:evenodd;clip-rule:evenodd;" points="123.666,0 148.364,80.128 36.528,102.465 14.17,0 			
				"/>
			<g>
				<polygon style="fill-rule:evenodd;clip-rule:evenodd;fill:#FFFFFF;" points="121.532,0 141.321,74.706 36.528,102.464 9.386,0 
									"/>
				<polygon style="fill-rule:evenodd;clip-rule:evenodd;fill:#2C394D;" points="113.894,0 133.829,70.412 43.312,94.389 17.024,0 
									"/>
			</g>
		</g>
		<g>
			<polygon style="fill-rule:evenodd;clip-rule:evenodd;" points="0,48.627 49.882,49.69 45.305,184.975 0,178.789 			"/>
			<g>
				<polygon style="fill-rule:evenodd;clip-rule:evenodd;fill:#FFFFFF;" points="0,45.998 49.882,49.69 40.42,177.549 0,174.557 
									"/>
				<polygon style="fill-rule:evenodd;clip-rule:evenodd;fill:#2C394D;" points="0,53.065 42.999,56.173 35.989,168.893 0,166.304 
									"/>
			</g>
		</g>
		<g>
			<polygon style="opacity:0.2;fill-rule:evenodd;clip-rule:evenodd;" points="429.29,0 403.531,68.054 301.529,17.045 309.68,0 			
				"/>
			<g>
				<polygon style="fill-rule:evenodd;clip-rule:evenodd;fill:#FFFFFF;" points="426.567,0 401.299,59.45 301.529,17.045 308.774,0 
									"/>
				<polygon style="fill-rule:evenodd;clip-rule:evenodd;fill:#2C394D;" points="418.544,0 398.9,48.414 315.785,11.545 328.516,0 
									"/>
			</g>
		</g>
		<g>
			<polygon style="opacity:0.2;fill-rule:evenodd;clip-rule:evenodd;" points="208.37,31.986 304.502,0 306.409,0 347.351,128.39 
				235.737,151.811 			"/>
			<g>
				<polygon style="fill-rule:evenodd;clip-rule:evenodd;fill:#FFFFFF;" points="201.707,28.2 304.141,0 306.383,0 340.255,123.036 
					235.737,151.81 				"/>
				<polygon style="fill-rule:evenodd;clip-rule:evenodd;fill:#2C394D;" points="210.697,33.035 300.978,8.181 331.35,119.361 
					241.07,144.216 				"/>
			</g>
		</g>
		<g>
			<polygon style="opacity:0.2;fill-rule:evenodd;clip-rule:evenodd;" points="92.953,213.925 189.82,178.533 234.678,306.247 
				123.792,332.902 			"/>
			<g>
				
					<rect x="102.602" y="191.612" transform="matrix(0.956 -0.2933 0.2933 0.956 -68.1146 57.2477)" style="fill-rule:evenodd;clip-rule:evenodd;fill:#FFFFFF;" width="108.407" height="128.209"/>
				<polygon style="fill-rule:evenodd;clip-rule:evenodd;fill:#2C394D;" points="95.309,214.905 184.829,187.437 218.982,295.077 
					129.462,322.546 				"/>
			</g>
		</g>
		<g>
			<polygon style="opacity:0.2;fill-rule:evenodd;clip-rule:evenodd;" points="130.317,73.622 233.305,68.202 238.725,203.457 
				124.898,196.411 			"/>
			<g>
				<rect x="124.898" y="68.202" style="fill-rule:evenodd;clip-rule:evenodd;fill:#FFFFFF;" width="108.407" height="128.209"/>
				<rect x="132.282" y="75.25" style="fill-rule:evenodd;clip-rule:evenodd;fill:#2C394D;" width="93.64" height="113.113"/>
			</g>
		</g>
		<g>
			<polygon style="fill-rule:evenodd;clip-rule:evenodd;" points="432.745,303.821 500,284.297 500,417.052 455.457,424.614 			"/>
			<g>
				<polygon style="fill-rule:evenodd;clip-rule:evenodd;fill:#FFFFFF;" points="426.233,299.78 500,282.51 500,414.185 
					455.457,424.613 				"/>
				<polygon style="fill-rule:evenodd;clip-rule:evenodd;fill:#2C394D;" points="435.029,304.959 500,289.749 500,387.299 
					456.679,397.441 				"/>
			</g>
		</g>
		<g>
			<polygon style="opacity:0.2;fill-rule:evenodd;clip-rule:evenodd;" points="332.326,50.684 434.549,64.322 414.97,198.261 
				304.386,170.376 			"/>
			<g>
				
					<rect x="305.364" y="63.145" transform="matrix(0.1841 -0.9829 0.9829 0.1841 186.0916 458.89)" style="fill-rule:evenodd;clip-rule:evenodd;fill:#FFFFFF;" width="128.209" height="108.407"/>
				<polygon style="fill-rule:evenodd;clip-rule:evenodd;fill:#2C394D;" points="333.956,52.646 425.994,69.89 404.355,177.772 
					312.317,160.529 				"/>
			</g>
		</g>
		<g>
			<polygon style="opacity:0.2;fill-rule:evenodd;clip-rule:evenodd;" points="365.994,176.801 463.84,144.216 500,257.506 
				500,274.22 393.39,296.618 			"/>
			<g>
				
					<rect x="374.412" y="156.312" transform="matrix(0.9641 -0.2657 0.2657 0.9641 -43.155 121.7898)" style="fill-rule:evenodd;clip-rule:evenodd;fill:#FFFFFF;" width="108.408" height="128.209"/>
				<polygon style="fill-rule:evenodd;clip-rule:evenodd;fill:#2C394D;" points="368.321,177.849 458.596,152.972 489.538,262.933 
					399.263,287.81 				"/>
			</g>
		</g>
		<g>
			<polygon style="opacity:0.2;fill-rule:evenodd;clip-rule:evenodd;" points="479.813,83.417 500,87.23 500,218.361 
				445.451,201.425 			"/>
			<g>
				<polygon style="fill-rule:evenodd;clip-rule:evenodd;fill:#FFFFFF;" points="475.831,76.867 500,82.762 500,214.729 
					445.451,201.425 				"/>
				<polygon style="fill-rule:evenodd;clip-rule:evenodd;fill:#2C394D;" points="481.334,85.464 500,90.017 500,207.235 
					455.278,195.777 				"/>
			</g>
		</g>
		<g>
			<polygon style="opacity:0.2;fill-rule:evenodd;clip-rule:evenodd;" points="397.964,4.069 408.321,0 500,0 500,104.093 
				431.652,122.271 			"/>
			<g>
				<polygon style="fill-rule:evenodd;clip-rule:evenodd;fill:#FFFFFF;" points="391.107,0.642 393.033,0 500,0 500,99.488 
					431.652,122.271 				"/>
				<polygon style="fill-rule:evenodd;clip-rule:evenodd;fill:#2C394D;" points="400.342,4.993 415.32,0 497.381,0 500,7.853 
					500,91.021 436.909,112.3 				"/>
			</g>
		</g>
		<g>
			<polygon style="opacity:0.2;fill-rule:evenodd;clip-rule:evenodd;" points="117.509,356.251 215.364,323.691 256.49,452.655 
				144.875,476.075 			"/>
			<g>
				
					<rect x="125.916" y="335.778" transform="matrix(0.9641 -0.2654 0.2654 0.9641 -99.6792 62.1523)" style="fill-rule:evenodd;clip-rule:evenodd;fill:#FFFFFF;" width="108.407" height="128.209"/>
				<polygon style="fill-rule:evenodd;clip-rule:evenodd;fill:#2C394D;" points="119.835,357.299 210.116,332.445 239.293,441.913 
					149.012,466.767 				"/>
			</g>
		</g>
		<g>
			<polygon style="opacity:0.2;fill-rule:evenodd;clip-rule:evenodd;" points="274.85,124.236 373.181,155.329 330.756,283.872 
				226.654,237.301 			"/>
			<g>
				
					<rect x="235.813" y="142.111" transform="matrix(0.3512 -0.9363 0.9363 0.3512 10.7816 408.1891)" style="fill-rule:evenodd;clip-rule:evenodd;fill:#FFFFFF;" width="128.209" height="108.408"/>
				
					<rect x="255.785" y="140.54" transform="matrix(0.3512 -0.9363 0.9363 0.3512 21.3461 405.5227)" style="fill-rule:evenodd;clip-rule:evenodd;fill:#2C394D;" width="94.982" height="93.639"/>
			</g>
		</g>
		<g>
			<polygon style="opacity:0.2;fill-rule:evenodd;clip-rule:evenodd;" points="184.958,225.855 334.896,192.893 375.692,390.218 
				206.81,407.506 			"/>
			<g>
				
					<rect x="190.166" y="204.774" transform="matrix(0.9866 -0.1631 0.1631 0.9866 -45.3335 48.1931)" style="fill-rule:evenodd;clip-rule:evenodd;fill:#FFFFFF;" width="161.373" height="190.849"/>
				
					<rect x="200.943" y="215.279" transform="matrix(0.9866 -0.1631 0.1631 0.9866 -45.0641 48.1361)" style="fill-rule:evenodd;clip-rule:evenodd;fill:#2C394D;" width="139.391" height="166.499"/>
			</g>
		</g>
		<g>
			<polygon style="opacity:0.2;fill-rule:evenodd;clip-rule:evenodd;" points="338.849,0 340.299,36.202 195.361,27.231 196.563,0 
							"/>
			<rect x="195.361" y="0" style="fill-rule:evenodd;clip-rule:evenodd;fill:#FFFFFF;" width="138.037" height="27.23"/>
			<rect x="203.828" y="0" style="fill-rule:evenodd;clip-rule:evenodd;fill:#2C394D;" width="121.102" height="19.265"/>
		</g>
		<g>
			<polygon style="opacity:0.2;fill-rule:evenodd;clip-rule:evenodd;" points="214.542,0 201.593,64.15 92.678,30.334 101.51,0 			
				"/>
			<g>
				<polygon style="fill-rule:evenodd;clip-rule:evenodd;fill:#FFFFFF;" points="211.661,0 197.997,56.021 92.678,30.334 100.076,0 
									"/>
				<polygon style="fill-rule:evenodd;clip-rule:evenodd;fill:#2C394D;" points="204.061,0 192.658,47.296 101.685,25.108 
					107.677,0 				"/>
			</g>
		</g>
		<g>
			<polygon style="opacity:0.2;fill-rule:evenodd;clip-rule:evenodd;" points="26.475,280.1 129.463,274.68 134.882,409.935 
				21.056,402.889 			"/>
			<g>
				<rect x="21.056" y="274.68" style="fill-rule:evenodd;clip-rule:evenodd;fill:#FFFFFF;" width="108.407" height="128.209"/>
				<rect x="28.44" y="281.729" style="fill-rule:evenodd;clip-rule:evenodd;fill:#2C394D;" width="93.639" height="112.777"/>
			</g>
		</g>
		<g>
			<polygon style="fill-rule:evenodd;clip-rule:evenodd;" points="384.305,425.051 500,378.31 500,500 406.448,500 			"/>
			<g>
				<polygon style="fill-rule:evenodd;clip-rule:evenodd;fill:#FFFFFF;" points="375.786,420.893 500,378.156 500,500 403.004,500 
									"/>
				<polygon style="fill-rule:evenodd;clip-rule:evenodd;fill:#2C394D;" points="387.258,426.165 496.768,388.486 500,397.877 
					500,500 412.662,500 				"/>
			</g>
		</g>
		<g>
			<polygon style="opacity:0.2;fill-rule:evenodd;clip-rule:evenodd;" points="370.999,258.68 469.631,288.808 428.468,417.76 
				323.914,372.212 			"/>
			<g>
				
					<rect x="332.668" y="276.306" transform="matrix(0.342 -0.9397 0.9397 0.342 -49.5006 590.3281)" style="fill-rule:evenodd;clip-rule:evenodd;fill:#FFFFFF;" width="128.209" height="108.407"/>
				<polygon style="fill-rule:evenodd;clip-rule:evenodd;fill:#2C394D;" points="372.288,260.882 460.282,292.906 421.822,398.172 
					333.828,366.148 				"/>
			</g>
		</g>
		<g>
			<polygon style="opacity:0.2;fill-rule:evenodd;clip-rule:evenodd;" points="309.499,427.753 411.164,445.074 401.096,500 
				289.858,500 			"/>
			<g>
				<polygon style="fill-rule:evenodd;clip-rule:evenodd;fill:#FFFFFF;" points="305.401,421.276 411.163,445.074 398.805,500 
					287.688,500 				"/>
				<polygon style="fill-rule:evenodd;clip-rule:evenodd;fill:#2C394D;" points="311.057,429.773 402.412,450.329 391.237,500 
					295.256,500 				"/>
			</g>
		</g>
		<g>
			<polygon style="opacity:0.2;fill-rule:evenodd;clip-rule:evenodd;" points="250.179,365.068 351.517,384.205 328.145,500 
				270.328,500 215.818,483.076 			"/>
			<g>
				<polygon style="fill-rule:evenodd;clip-rule:evenodd;fill:#FFFFFF;" points="246.198,358.518 351.517,384.205 323.276,500 
					285.208,500 215.818,483.075 				"/>
				<polygon style="fill-rule:evenodd;clip-rule:evenodd;fill:#2C394D;" points="251.702,367.115 342.675,389.303 314.583,503.522 
					223.61,481.334 				"/>
			</g>
		</g>
		<g>
			<polygon style="fill-rule:evenodd;clip-rule:evenodd;" points="110.091,431.199 204.659,472.344 192.212,500 71.873,500 			"/>
			<g>
				<polygon style="fill-rule:evenodd;clip-rule:evenodd;fill:#FFFFFF;" points="107.663,423.931 204.659,472.343 190.855,500 
					69.695,500 				"/>
				<polygon style="fill-rule:evenodd;clip-rule:evenodd;fill:#2C394D;" points="111.122,433.534 194.905,475.352 182.603,500 
					77.947,500 				"/>
			</g>
		</g>
		<g>
			<polygon style="opacity:0.2;fill-rule:evenodd;clip-rule:evenodd;" points="0,373.926 75.017,365.982 87.514,500 0,500 			"/>
			<g>
				<polygon style="fill-rule:evenodd;clip-rule:evenodd;fill:#FFFFFF;" points="0,369.956 75.017,365.982 82.117,500 0,500 				"/>
				<polygon style="fill-rule:evenodd;clip-rule:evenodd;fill:#2C394D;" points="0,378.83 66.215,375.322 72.533,494.577 0,498.419 
									"/>
			</g>
		</g>
		<g>
			<polygon style="opacity:0.2;fill-rule:evenodd;clip-rule:evenodd;" points="180.488,479.706 283.476,474.286 284.506,500 
				179.592,500 			"/>
			<g>
				<rect x="175.068" y="474.286" style="fill-rule:evenodd;clip-rule:evenodd;fill:#FFFFFF;" width="108.408" height="25.714"/>
				<rect x="182.452" y="481.334" style="fill-rule:evenodd;clip-rule:evenodd;fill:#2C394D;" width="93.64" height="18.665"/>
			</g>
		</g>
		<g>
			<polygon style="opacity:0.2;fill-rule:evenodd;clip-rule:evenodd;" points="42.664,90.258 168.396,136.585 105.526,300.839 
				0,247.577 0,178.642 			"/>
			<g>
				<polygon style="fill-rule:evenodd;clip-rule:evenodd;fill:#FFFFFF;" points="38.972,81.008 168.396,136.585 102.667,289.649 
					0,245.562 0,171.765 				"/>
				<polygon style="fill-rule:evenodd;clip-rule:evenodd;fill:#2C394D;" points="44.174,93.208 155.967,141.214 97.236,280.401 
					0,235.061 0,196.078 				"/>
			</g>
		</g>
		<g>
			<polygon style="opacity:0.2;fill-rule:evenodd;clip-rule:evenodd;" points="49.267,0 51.807,6.128 0,21.657 0,0 			"/>
			<g>
				<polygon style="fill-rule:evenodd;clip-rule:evenodd;fill:#FFFFFF;" points="45.456,0 46.477,2.77 0,19.896 0,0 				"/>
				<polygon style="fill-rule:evenodd;clip-rule:evenodd;fill:#2C394D;" points="0.325,0 0,0.12 0,0 				"/>
			</g>
			<polygon style="fill-rule:evenodd;clip-rule:evenodd;fill:#2C394D;" points="0,0 0,9.948 29.327,0.12 			"/>
		</g>
		<g>
			<polygon style="opacity:0.2;fill-rule:evenodd;clip-rule:evenodd;" points="188.878,155.028 248.135,122.798 289.46,201.1 
				220.292,229.027 			"/>
			<g>
				
					<rect x="198.76" y="133.984" transform="matrix(0.9024 -0.431 0.431 0.9024 -52.9456 118.112)" style="fill-rule:evenodd;clip-rule:evenodd;fill:#FFFFFF;" width="70.907" height="83.858"/>
				<polygon style="fill-rule:evenodd;clip-rule:evenodd;fill:#2C394D;" points="190.496,155.435 245.764,129.04 277.634,195.548 
					222.366,221.944 				"/>
			</g>
		</g>
		<g>
			<polygon style="opacity:0.2;fill-rule:evenodd;clip-rule:evenodd;" points="411.115,368.574 447.754,373.981 440.055,421.977 
				400.487,411.412 			"/>
			<g>
				
					<rect x="401.1" y="373.232" transform="matrix(0.1978 -0.9802 0.9802 0.1978 -44.7035 730.7688)" style="fill-rule:evenodd;clip-rule:evenodd;fill:#FFFFFF;" width="46.041" height="38.93"/>
				<polygon style="fill-rule:evenodd;clip-rule:evenodd;fill:#2C394D;" points="411.692,369.287 444.654,375.938 437.068,415.047 
					404.105,408.396 				"/>
			</g>
		</g>
		<g>
			<polygon style="opacity:0.2;fill-rule:evenodd;clip-rule:evenodd;" points="62.401,249.295 97.236,261.871 80.16,307.382 
				43.478,289.171 			"/>
			<g>
				
					<rect x="47.337" y="256.056" transform="matrix(0.3885 -0.9214 0.9214 0.3885 -210.8537 233.3073)" style="fill-rule:evenodd;clip-rule:evenodd;fill:#FFFFFF;" width="46.041" height="38.93"/>
				<polygon style="fill-rule:evenodd;clip-rule:evenodd;fill:#2C394D;" points="62.825,250.109 93.81,263.172 77.983,300.839 
					46.998,287.775 				"/>
			</g>
		</g>
	</g>
</g>
</svg>
